<?xml version="1.0" encoding="UTF-8" standalone="no"?>
<!-- Created with Inkscape (http://www.inkscape.org/) -->

<svg
   version="1.1"
   id="svg1"
   width="520"
   height="520"
   viewBox="0 0 520 520"
   sodipodi:docname="pony-express.svg"
   xml:space="preserve"
   inkscape:version="1.4.3 (0d15f75, 2025-12-25)"
   xmlns:inkscape="http://www.inkscape.org/namespaces/inkscape"
   xmlns:sodipodi="http://sodipodi.sourceforge.net/DTD/sodipodi-0.dtd"
   xmlns="http://www.w3.org/2000/svg"
   xmlns:svg="http://www.w3.org/2000/svg"><defs
     id="defs1" /><sodipodi:namedview
     id="namedview1"
     pagecolor="#ffffff"
     bordercolor="#666666"
     borderopacity="1.0"
     inkscape:showpageshadow="2"
     inkscape:pageopacity="0.0"
     inkscape:pagecheckerboard="0"
     inkscape:deskcolor="#d1d1d1"
     inkscape:zoom="0.50144231"
     inkscape:cx="164.52541"
     inkscape:cy="501.55321"
     inkscape:window-width="1920"
     inkscape:window-height="1057"
     inkscape:window-x="-8"
     inkscape:window-y="-8"
     inkscape:window-maximized="1"
     inkscape:current-layer="g1" /><g
     inkscape:groupmode="layer"
     inkscape:label="Image"
     id="g1"><path
       style="fill:#d35f5f;fill-opacity:1;stroke:#d35f5f"
       d="m 180.9277,470.29025 c -2.63627,-1.26372 -5.01011,-2.51457 -5.27521,-2.77967 -0.41879,-0.41878 35.32165,-61.44191 62.23795,-106.26491 4.95415,-8.25 10.46322,-17.5875 12.24239,-20.75 1.77918,-3.1625 3.47438,-5.75 3.76713,-5.75 0.9205,0 12.80482,3.16233 13.1468,3.49827 0.17922,0.17605 -5.63022,10.14846 -12.90986,22.16091 -7.27964,12.01245 -14.91448,24.76582 -16.96631,28.34082 -2.05184,3.575 -8.86188,15.05 -15.13343,25.5 -6.27154,10.45 -16.55833,27.88105 -22.85953,38.73567 -6.3012,10.85462 -11.90672,19.70663 -12.45672,19.67113 -0.55,-0.0355 -3.15695,-1.0985 -5.79321,-2.36222 z m 153.29321,-85.04458 v -48.5 h 15.76872 15.76873 l 7.48127,6.60733 c 4.11471,3.63402 11.43407,9.93402 16.26526,14 l 8.78398,7.39267 h 31.76073 31.76072 l 14.95529,-8.30463 14.9553,-8.30462 0.2999,-5.69538 0.29991,-5.69537 h 10.45009 10.4501 v 48.5 48.5 h -89.5 -89.5 z m 148.38955,32.8706 c -2.13925,-1.44617 -10.98266,-7.59204 -19.65202,-13.65748 -17.64244,-12.34337 -16.75518,-10.6494 -9.35835,-17.8671 l 2.87918,-2.80945 3.62082,2.81891 c 9.00329,7.00931 39.11254,28.14452 40.09472,28.14452 0.77082,0 1.06133,-9.72832 0.98546,-33 -0.0886,-27.18566 -0.34842,-33 -1.47446,-33 -0.75178,0 -1.61802,0.40638 -1.92499,0.90306 -0.53994,0.87365 -13.53068,9.10634 -52.81037,33.46781 -10.31275,6.39602 -19.45015,11.62913 -20.30533,11.62913 -1.44016,0 -7.68071,-3.7112 -24.66195,-14.66622 -3.69476,-2.38358 -6.97925,-4.33378 -7.29886,-4.33378 -0.31962,0 -3.14663,-1.76205 -6.28226,-3.91567 -12.13012,-8.33122 -36.20103,-23.08433 -37.664,-23.08433 -1.35183,0 -1.53714,3.9815 -1.53714,33.02568 v 33.02568 l 2.75,-1.45586 c 1.5125,-0.80072 12.17758,-7.56756 23.70017,-15.03743 l 20.95018,-13.58158 4.25646,4.17741 c 2.34106,2.29757 4.0457,4.51843 3.78809,4.93525 -0.50368,0.81497 -18.64636,12.92688 -32.34749,21.59493 l -8.4026,5.31592 H 424.20786 486.5 Z m -87.01711,-67.6206 c -2.70473,-2.8875 -6.87492,-7.59409 -9.26709,-10.45908 -4.46702,-5.34993 -7.76715,-6.96229 -21.10535,-10.31152 -2.475,-0.62148 -8.15994,-2.23228 -12.63319,-3.57956 l -8.13319,-2.44961 1.49703,-5.22512 c 0.82337,-2.87381 1.81109,-5.56789 2.19493,-5.98685 0.67625,-0.73811 37.53028,9.24328 40.34259,10.92622 0.76791,0.45954 5.11381,4.99802 9.65754,10.08552 l 8.26133,9.25 h 26.44632 c 24.9388,0 26.68631,-0.12065 30.65648,-2.11651 8.06462,-4.05421 7.71016,-2.93095 7.71016,-24.4331 v -19.23964 l -16.77687,-15.85538 c -9.22728,-8.72045 -26.2126,-24.63037 -37.74516,-35.35537 -11.53257,-10.725 -24.67036,-23.05501 -29.19511,-27.40003 l -8.22681,-7.90003 2.97197,-3.03981 c 1.63459,-1.67189 2.97198,-3.37234 2.97198,-3.77877 0,-0.40642 -1.4625,-2.25075 -3.25,-4.0985 -4.34836,-4.49494 -74.03966,-69.43627 -77.08933,-71.83514 -2.01632,-1.58603 -4.44648,-1.93067 -15.27917,-2.16686 l -12.8815,-0.28086 -0.26877,-22.75 c -0.16573,-14.027188 -0.645,-22.749998 -1.25,-22.749998 -0.53968,0 -0.98123,0.37348 -0.98123,0.82996 0,0.45647 -10.33116,10.80647 -22.95812,22.999998 l -22.95813,22.17004 H 163.26279 98.220908 v -7 -7 l 62.750002,-0.0115 62.75,-0.0115 32.5,-31.847628 32.5,-31.84762 0.26385,31.85913 0.26386,31.859118 h 2.90436 c 1.59739,0 3.56327,0.25285 4.3686,0.56188 0.91497,0.35111 5.70384,-3.1188 12.76604,-9.25 26.73908,-23.214068 38.44548,-33.456438 49.78857,-43.561878 6.63662,-5.9125 12.23228,-10.75 12.43478,-10.75 0.20251,0 0.0174,2.8125 -0.41139,6.25 -0.42878,3.4375 -2.41104,20.875 -4.40503,38.75 -1.99399,17.874998 -3.75756,33.399998 -3.91905,34.499998 -0.25451,1.73369 -0.94346,1.962 -5.1741,1.71459 -2.68427,-0.15698 -5.50036,-0.50237 -6.25797,-0.76754 -1.50172,-0.5256 -1.31208,-4.27815 1.33656,-26.44705 0.75569,-6.324998 1.65042,-14.172158 1.98829,-17.438128 l 0.61432,-5.93813 -6.28084,5.96212 c -3.45447,3.27917 -12.92621,11.78097 -21.04831,18.892898 -13.94106,12.20716 -14.66855,13.02315 -13,14.58163 25.7015,24.00603 53.40303,49.76616 66.5459,61.8822 l 16.75134,15.44259 -3.58144,3.66773 -3.58145,3.66773 37.71995,35.38968 c 20.74597,19.46432 38.66342,36.20755 39.81655,37.20717 1.15314,0.99963 5.41069,5.04568 9.46122,8.99124 l 7.36462,7.17375 -0.65766,26.00876 c -0.76239,30.15067 0.54287,26.93711 -13.62584,33.5471 l -8.44573,3.94011 -31.10494,0.0108 -31.10495,0.0108 z M 288.72091,325.65746 c -15.95,-4.28308 -35.525,-9.4082 -43.5,-11.38915 -16.54237,-4.10904 -19,-4.98115 -19,-6.74233 0,-0.69441 -4.11732,-15.78674 -9.14959,-33.53851 -5.03228,-17.75177 -8.92212,-32.50342 -8.64409,-32.78145 0.76705,-0.76705 11.66375,-2.92417 12.17356,-2.40989 0.2451,0.24725 3.43306,11.24954 7.08437,24.44954 3.6513,13.2 7.5316,26.75043 8.62287,30.11208 l 1.98415,6.11207 10.71436,2.62628 c 5.8929,1.44445 24.21437,6.17504 40.71437,10.51243 l 30,7.88617 -0.34482,5.87549 c -0.18966,3.23151 -0.63966,6.1453 -1,6.47509 -0.36035,0.32978 -13.70518,-2.90474 -29.65518,-7.18782 z M 26.429122,322.45782 c -2.314521,-2.35832 -4.208211,-4.57942 -4.208211,-4.93579 0,-0.35636 37.871281,-38.50221 84.158389,-84.76855 l 84.15839,-84.12061 4.74222,4.67091 4.74222,4.67091 -84.10438,84.38549 c -46.257408,46.41202 -84.368988,84.38549 -84.692398,84.38549 -0.32341,0 -2.48172,-1.92953 -4.79623,-4.28785 z M 435.88758,318.079 c -0.36667,-0.36666 -0.66667,-3.74166 -0.66667,-7.5 v -6.83333 h 9 9 v 7.5 7.5 h -8.33333 c -4.58334,0 -8.63334,-0.3 -9,-0.66667 z M 8.9294014,248.48726 c -2.64659,-4.96948 -2.69851,-5.31061 -1,-6.57112 4.1920196,-3.11101 80.5076806,-51.28556 80.7799066,-50.99263 0.16466,0.17719 1.66174,2.64445 3.32685,5.48279 l 3.02747,5.16064 -5.57163,3.69935 c -3.064396,2.03465 -17.991506,11.57445 -33.171356,21.19956 -15.17985,9.6251 -30.97473,19.69833 -35.099731,22.38494 -4.125,2.6866 -7.95,4.88324 -8.5,4.8814 -0.55,-0.002 -2.25618,-2.36206 -3.7915096,-5.24493 z M 310.4026,233.82858 l 0.42633,-8.91708 -13.37826,-4.28915 -13.37826,-4.28915 0.6867,-6.04377 c 0.37768,-3.32407 0.85152,-6.22169 1.05298,-6.43916 0.44279,-0.47798 4.84065,0.80526 31.40882,9.16473 l 20.5,6.45016 0.2954,5.48939 0.2954,5.48938 -13.49929,6.15087 c -7.42462,3.38298 -13.80009,6.15087 -14.16772,6.15087 -0.36764,0 -0.47658,-4.01269 -0.2421,-8.91709 z M 35.591752,187.99567 c -0.31151,-0.9625 -1.19739,-3.44661 -1.96862,-5.52024 -0.77122,-2.07363 -1.40222,-3.95882 -1.40222,-4.18931 0,-0.4461 19.65082,-6.95426 63.499996,-21.03057 14.850002,-4.7671 35.204142,-11.3666 45.231422,-14.66557 10.02728,-3.29896 18.98178,-5.85101 19.89889,-5.67121 1.01216,0.19843 2.34855,2.41751 3.40048,5.64655 1.71886,5.27624 1.71561,5.32625 -0.39889,6.12809 -7.21593,2.73635 -125.759458,41.05226 -127.009378,41.05226 -0.37691,0 -0.94017,-0.7875 -1.25168,-1.75 z"
       id="path5" /></g></svg>
